<?xml version="1.0" encoding="UTF-8"?>
<!-- Generator: Adobe Illustrator 21.1.0, SVG Export Plug-In . SVG Version: 6.00 Build 0)  -->
<!DOCTYPE svg PUBLIC "-//W3C//DTD SVG 1.1//EN" "http://www.w3.org/Graphics/SVG/1.1/DTD/svg11.dtd">
<svg version="1.1" id="Layer_1" xmlns="http://www.w3.org/2000/svg" xmlns:xlink="http://www.w3.org/1999/xlink" x="0px" y="0px" viewBox="0 0 80 80" style="enable-background:new 0 0 80 80;" xml:space="preserve">
<style type="text/css">
	.st0{fill:#1E394F;}
	.st1{fill:#F3BE25;}
	.st2{fill:#79ABCB;}
</style>
<g>
	<path class="st0" d="M73.5,25.6c0.7-1.1,0-3,0.1-4.3c0.2-1.3,2.4-4.5,2.2-5.8c-1.1,0.1-2.9,0.3-4.8,0c-2-0.2-7,0.7-8.8,1.5   c-1.8,0.8,0.4-0.7-1-1.3c-1.4-0.5-7.1,1.8-7.1,1.8l-5.5-0.4L40,18l0,0v0l0,0l0,0v0l0,0l-8.7-0.8l-5.5,0.4c0,0-5.7-2.4-7.1-1.8   c-1.4,0.5,0.9,2-1,1.3c-1.8-0.8-6.8-1.7-8.8-1.5c-2,0.2-3.7,0.1-4.8,0c-0.2,1.2,2.1,4.5,2.2,5.8c0.2,1.3-0.6,3.2,0.1,4.3   c0.7,1.1-0.5,1.7-0.5,3c0,1.3,2.7,3.2,2.4,4.3c-0.3,1-0.4,3.3,0,5.2c0.4,1.9,1.4,5.3,1.1,6.9c-0.3,1.5-1.3,4.6-1.1,5.3   c0.2,0.7,0.3,1.3,0.3,2.3c0,0.9,1,3.5,0.8,4.7c-0.2,1.2,0.3,3.2,0.1,3.8c-0.2,0.6-1.4,3.4-0.3,3.1c1-0.3,7.4-0.5,9.5-0.5   c1,0,5.5,0.5,10.5,0.5c2.8,0,2.4-0.1,4.9-0.4c0.9,0.4,5,0.4,5.4,0.3c0.1,0,0.3-0.1,0.5-0.1c0.2,0,0.3,0.1,0.5,0.1   c0.4,0.1,4.4,0.1,5.4-0.3c2.5,0.3,2.1,0.4,4.9,0.4c5,0.1,9.5-0.5,10.5-0.5c2.2,0,8.5,0.1,9.5,0.5c1,0.3-0.2-2.4-0.3-3.1   c-0.2-0.6,0.4-2.6,0.1-3.8c-0.2-1.2,0.8-3.8,0.8-4.7c0-0.9,0.1-1.6,0.3-2.3c0.2-0.7-0.9-3.8-1.1-5.3c-0.3-1.5,0.7-4.9,1.1-6.9   c0.4-1.9,0.3-4.2,0-5.2c-0.3-1,2.4-3,2.4-4.3C74.1,27.3,72.8,26.7,73.5,25.6z"/>
	<path class="st1" d="M19,21.5h12c-0.3,1.3-0.4,2.7-0.4,4.1c0.5,5.3,4,20,4,20l5.7-22.9L46,45.1c0,0,3.5-19.7,3.5-21   c-0.1-1-0.6-1.9-1.4-2.5h12.6c-1.7,1.6-2.9,3.5-3.6,5.7c-1.1,4.3-5,26.2-5,27.6c0.1,1.4,0.6,2.8,1.5,3.9H41.9   c0.3-1,0.4-2.1,0.4-3.2c0-2-1.9-11.5-1.9-11.5S38,53.9,38,55.7c0,1.1,0.3,2.1,0.8,3.1H26.6c0,0,2.3-1.6,2.2-3.2   c-0.3-4.5-6.5-27.7-7-29.5C21.5,24.3,20.5,22.6,19,21.5z"/>
	<g>
		<path class="st2" d="M23.5,64.6c0-0.4,0-11,0-17.6h0c0,0,0-2.4,0-6c-1.1-4.5-2.3-8.9-2.9-11.5c-0.4-1.7-0.7-2.7-0.8-3    c0,0,0-0.1,0-0.1c-0.2-1.3-1-2.4-2-3.2c-0.8-0.5-1.1-1.5-0.8-2.4c0.3-0.9,1.1-1.5,2.1-1.5h4.5c0-2.3,0-3.8,0-4    c0-0.9,2.2-3,3.1-3.6v-0.6h-0.2h-7.6h-0.1h-0.4h-0.4h-0.1h-7.6H10v0.6c0.8,0.6,3.1,2.7,3.1,3.6c0,0.4,0,6.4,0,13h0    c0,0,0,35.3,0,36.3c0,0.9-2.2,3-3.1,3.6v0.6h0.2h7.6h0.1h0.4h0.4h0.1h7.6h0.2v-0.6C25.7,67.6,23.5,65.5,23.5,64.6z"/>
		<g>
			<path class="st2" d="M45,64.6c0-0.2,0-1.6,0-3.6h-3.1c-0.6,0-1.1-0.8-1.5-1.2c-0.4,0.4-1,1.2-1.5,1.2h-4.1c0,2.1,0,3.4,0,3.6     c0,0.9-2.2,3-3.1,3.6v0.6h0.2h7.6h0.1h0.4h0.4h0.1h7.6h0.2v-0.6C47.3,67.6,45,65.5,45,64.6z"/>
			<path class="st2" d="M34.6,15.3c0,0.4,0,6.4,0,13h0c0,0,0,3.2,0,7.7l3.4-13.9c0.2-1,1.1-1.6,2.1-1.6c0,0,0,0,0,0     c1,0,1.8,0.7,2.1,1.6l3.4,13.9c0-8.1-0.7-20.2-0.7-20.7c0-0.9,2.2-3,3.1-3.6v-0.6h-0.2h-7.6h-0.1h-0.4h-0.4h-0.1h-7.6h-0.2v0.6     C32.4,12.4,34.6,14.5,34.6,15.3z"/>
		</g>
		<path class="st2" d="M66.5,47c0,0,0-30.7,0-31.7c0-0.9,2.2-3,3.1-3.6v-0.6h-0.2h-7.6h-0.1h-0.4H61h-0.1h-7.6h-0.2v0.6    c0.8,0.6,3.1,2.7,3.1,3.6c0,0.2,0,1.7,0,4h4.5c0.9,0,1.7,0.5,2,1.4c0.3,0.8,0.1,1.8-0.5,2.4c-1.4,1.3-2.4,2.9-2.9,4.7    c-0.6,2.4-1.9,9.3-3,15.6c0,9.7,0,20.6,0,21.2c0,0.9-2.2,3-3.1,3.6v0.6h0.2h7.6H61h0.4h0.4h0.1h7.6h0.2v-0.6    c-0.8-0.6-3.1-2.7-3.1-3.6C66.5,64.2,66.5,53.6,66.5,47L66.5,47z"/>
	</g>
</g>
</svg>